<svg xmlns="http://www.w3.org/2000/svg" width="25" height="23" viewBox="0 0 25 23">
  <defs>
    <style>
      .cls-1 {
        fill: #fff;
        fill-rule: evenodd;
      }
    </style>
  </defs>
  <path id="Forma_1" data-name="Forma 1" class="cls-1" d="M1655.92,87.874h2.66l3.77,13.845a0.93,0.93,0,0,0,.89.688h11.61a0.936,0.936,0,0,0,.85-0.563L1679.92,92a0.968,0.968,0,0,0-.08-0.89,0.912,0.912,0,0,0-.77-0.422h-12.82a0.937,0.937,0,0,0,0,1.875h11.4l-3.42,7.968h-10.29l-3.78-13.843a0.929,0.929,0,0,0-.89-0.687h-3.35A0.937,0.937,0,0,0,1655.92,87.874ZM1662.37,109a2.125,2.125,0,1,0-2.1-2.125A2.112,2.112,0,0,0,1662.37,109Zm13.09,0h0.16a2.087,2.087,0,0,0,1.43-.734,2.145,2.145,0,0,0,.51-1.547A2.1,2.1,0,1,0,1675.46,109Z" transform="translate(-1655 -86)"/>
</svg>
